<svg width="64" height="65" viewBox="0 0 64 65" fill="none" xmlns="http://www.w3.org/2000/svg">
<path d="M31.9999 49.2333L20.9332 55.9C20.4443 56.2111 19.9332 56.3444 19.3999 56.2999C18.8666 56.2555 18.3999 56.0777 17.9999 55.7666C17.5999 55.4555 17.2888 55.0662 17.0666 54.5986C16.8443 54.1311 16.7999 53.6093 16.9332 53.0333L19.8666 40.4333L10.0666 31.9666C9.62212 31.5666 9.34479 31.1106 9.23457 30.5986C9.12435 30.0866 9.15723 29.5871 9.33323 29.1C9.51101 28.6111 9.77768 28.2111 10.1332 27.9C10.4888 27.5888 10.9777 27.3888 11.5999 27.3L24.5332 26.1666L29.5332 14.3C29.7555 13.7666 30.1003 13.3666 30.5679 13.1C31.0355 12.8333 31.5128 12.7 31.9999 12.7C32.4888 12.7 32.9661 12.8333 33.4319 13.1C33.8977 13.3666 34.2426 13.7666 34.4666 14.3L39.4666 26.1666L52.3999 27.3C53.0221 27.3888 53.511 27.5888 53.8666 27.9C54.2221 28.2111 54.4888 28.6111 54.6666 29.1C54.8443 29.5888 54.8781 30.0893 54.7679 30.6013C54.6577 31.1133 54.3795 31.5684 53.9332 31.9666L44.1332 40.4333L47.0666 53.0333C47.1999 53.6111 47.1555 54.1337 46.9332 54.6013C46.711 55.0688 46.3999 55.4573 45.9999 55.7666C45.5999 56.0777 45.1332 56.2555 44.5999 56.2999C44.0666 56.3444 43.5555 56.2111 43.0666 55.9L31.9999 49.2333Z" fill="#030303"/>
</svg>
